<svg viewBox="0 0 1513 400" xmlns="http://www.w3.org/2000/svg"><g><g><g><g><g><line x1="61.953125" y1="339.3806311736829" x2="56.953125" y2="339.3806311736829" style="visibility: inherit;" fill="rgb(0, 0, 0)" stroke="rgb(204, 204, 204)" stroke-width="1px"></line><line x1="61.953125" y1="297.7874715780246" x2="56.953125" y2="297.7874715780246" style="visibility: inherit;" fill="rgb(0, 0, 0)" stroke="rgb(204, 204, 204)" stroke-width="1px"></line><line x1="61.953125" y1="256.19431198236634" x2="56.953125" y2="256.19431198236634" style="visibility: inherit;" fill="rgb(0, 0, 0)" stroke="rgb(204, 204, 204)" stroke-width="1px"></line><line x1="61.953125" y1="214.60115238670807" x2="56.953125" y2="214.60115238670807" style="visibility: inherit;" fill="rgb(0, 0, 0)" stroke="rgb(204, 204, 204)" stroke-width="1px"></line><line x1="61.953125" y1="173.00799279104984" x2="56.953125" y2="173.00799279104984" style="visibility: inherit;" fill="rgb(0, 0, 0)" stroke="rgb(204, 204, 204)" stroke-width="1px"></line><line x1="61.953125" y1="131.41483319539157" x2="56.953125" y2="131.41483319539157" style="visibility: inherit;" fill="rgb(0, 0, 0)" stroke="rgb(204, 204, 204)" stroke-width="1px"></line><line x1="61.953125" y1="89.82167359973327" x2="56.953125" y2="89.82167359973327" style="visibility: inherit;" fill="rgb(0, 0, 0)" stroke="rgb(204, 204, 204)" stroke-width="1px"></line><line x1="61.953125" y1="48.22851400407516" x2="56.953125" y2="48.22851400407516" style="visibility: inherit;" fill="rgb(0, 0, 0)" stroke="rgb(204, 204, 204)" stroke-width="1px"></line><line x1="61.953125" y1="6.635354408416866" x2="56.953125" y2="6.635354408416866" style="visibility: inherit;" fill="rgb(0, 0, 0)" stroke="rgb(204, 204, 204)" stroke-width="1px"></line></g><g transform="translate(51.953125, 0)"><text x="0" y="339.3806311736829" dx="0em" dy="0.3em" style="text-anchor: end; visibility: inherit; font-family: Roboto, sans-serif; font-size: 12px; font-weight: 200;" fill="rgb(33, 33, 33)" stroke="none" stroke-width="1px">0.011</text><text x="0" y="297.7874715780246" dx="0em" dy="0.3em" style="text-anchor: end; visibility: inherit; font-family: Roboto, sans-serif; font-size: 12px; font-weight: 200;" fill="rgb(33, 33, 33)" stroke="none" stroke-width="1px">0.012</text><text x="0" y="256.19431198236634" dx="0em" dy="0.3em" style="text-anchor: end; visibility: inherit; font-family: Roboto, sans-serif; font-size: 12px; font-weight: 200;" fill="rgb(33, 33, 33)" stroke="none" stroke-width="1px">0.013</text><text x="0" y="214.60115238670807" dx="0em" dy="0.3em" style="text-anchor: end; visibility: inherit; font-family: Roboto, sans-serif; font-size: 12px; font-weight: 200;" fill="rgb(33, 33, 33)" stroke="none" stroke-width="1px">0.014</text><text x="0" y="173.00799279104984" dx="0em" dy="0.3em" style="text-anchor: end; visibility: inherit; font-family: Roboto, sans-serif; font-size: 12px; font-weight: 200;" fill="rgb(33, 33, 33)" stroke="none" stroke-width="1px">0.015</text><text x="0" y="131.41483319539157" dx="0em" dy="0.3em" style="text-anchor: end; visibility: inherit; font-family: Roboto, sans-serif; font-size: 12px; font-weight: 200;" fill="rgb(33, 33, 33)" stroke="none" stroke-width="1px">0.016</text><text x="0" y="89.82167359973327" dx="0em" dy="0.3em" style="text-anchor: end; visibility: inherit; font-family: Roboto, sans-serif; font-size: 12px; font-weight: 200;" fill="rgb(33, 33, 33)" stroke="none" stroke-width="1px">0.017</text><text x="0" y="48.22851400407516" dx="0em" dy="0.3em" style="text-anchor: end; visibility: inherit; font-family: Roboto, sans-serif; font-size: 12px; font-weight: 200;" fill="rgb(33, 33, 33)" stroke="none" stroke-width="1px">0.018</text><text x="0" y="6.635354408416866" dx="0em" dy="0.3em" style="text-anchor: end; visibility: inherit; font-family: Roboto, sans-serif; font-size: 12px; font-weight: 200;" fill="rgb(33, 33, 33)" stroke="none" stroke-width="1px">0.019</text></g><line x1="61.953125" y1="0" x2="61.953125" y2="377" fill="rgb(0, 0, 0)" stroke="rgb(204, 204, 204)" stroke-width="1px"></line></g></g><g transform="translate(61, 0)" clip-path="url(#clip_0)"><clipPath id="clip_0"><rect width="1451" height="377"></rect></clipPath><g><g><g><line x1="5.870846806129126" y1="0" x2="5.870846806129126" y2="377" fill="rgb(0, 0, 0)" stroke="rgb(66, 66, 66)" stroke-width="1px" opacity="0.25"></line><line x1="148.78340821601026" y1="0" x2="148.78340821601026" y2="377" fill="rgb(0, 0, 0)" stroke="rgb(66, 66, 66)" stroke-width="1px" opacity="0.25"></line><line x1="291.69596962589134" y1="0" x2="291.69596962589134" y2="377" fill="rgb(0, 0, 0)" stroke="rgb(66, 66, 66)" stroke-width="1px" opacity="0.25"></line><line x1="434.6085310357725" y1="0" x2="434.6085310357725" y2="377" fill="rgb(0, 0, 0)" stroke="rgb(66, 66, 66)" stroke-width="1px" opacity="0.25"></line><line x1="577.5210924456536" y1="0" x2="577.5210924456536" y2="377" fill="rgb(0, 0, 0)" stroke="rgb(66, 66, 66)" stroke-width="1px" opacity="0.25"></line><line x1="720.4336538555347" y1="0" x2="720.4336538555347" y2="377" fill="rgb(0, 0, 0)" stroke="rgb(66, 66, 66)" stroke-width="1px" opacity="0.25"></line><line x1="863.3462152654158" y1="0" x2="863.3462152654158" y2="377" fill="rgb(0, 0, 0)" stroke="rgb(66, 66, 66)" stroke-width="1px" opacity="0.25"></line><line x1="1006.2587766752968" y1="0" x2="1006.2587766752968" y2="377" fill="rgb(0, 0, 0)" stroke="rgb(66, 66, 66)" stroke-width="1px" opacity="0.25"></line><line x1="1149.171338085178" y1="0" x2="1149.171338085178" y2="377" fill="rgb(0, 0, 0)" stroke="rgb(66, 66, 66)" stroke-width="1px" opacity="0.25"></line><line x1="1292.0838994950589" y1="0" x2="1292.0838994950589" y2="377" fill="rgb(0, 0, 0)" stroke="rgb(66, 66, 66)" stroke-width="1px" opacity="0.25"></line><line x1="1434.99646090494" y1="0" x2="1434.99646090494" y2="377" fill="rgb(0, 0, 0)" stroke="rgb(66, 66, 66)" stroke-width="1px" opacity="0.25"></line></g><g><line x1="0" y1="339.3806311736829" x2="1451.046875" y2="339.3806311736829" fill="rgb(0, 0, 0)" stroke="rgb(66, 66, 66)" stroke-width="1px" opacity="0.25"></line><line x1="0" y1="297.7874715780246" x2="1451.046875" y2="297.7874715780246" fill="rgb(0, 0, 0)" stroke="rgb(66, 66, 66)" stroke-width="1px" opacity="0.25"></line><line x1="0" y1="256.19431198236634" x2="1451.046875" y2="256.19431198236634" fill="rgb(0, 0, 0)" stroke="rgb(66, 66, 66)" stroke-width="1px" opacity="0.25"></line><line x1="0" y1="214.60115238670807" x2="1451.046875" y2="214.60115238670807" fill="rgb(0, 0, 0)" stroke="rgb(66, 66, 66)" stroke-width="1px" opacity="0.25"></line><line x1="0" y1="173.00799279104984" x2="1451.046875" y2="173.00799279104984" fill="rgb(0, 0, 0)" stroke="rgb(66, 66, 66)" stroke-width="1px" opacity="0.25"></line><line x1="0" y1="131.41483319539157" x2="1451.046875" y2="131.41483319539157" fill="rgb(0, 0, 0)" stroke="rgb(66, 66, 66)" stroke-width="1px" opacity="0.25"></line><line x1="0" y1="89.82167359973327" x2="1451.046875" y2="89.82167359973327" fill="rgb(0, 0, 0)" stroke="rgb(66, 66, 66)" stroke-width="1px" opacity="0.25"></line><line x1="0" y1="48.22851400407516" x2="1451.046875" y2="48.22851400407516" fill="rgb(0, 0, 0)" stroke="rgb(66, 66, 66)" stroke-width="1px" opacity="0.25"></line><line x1="0" y1="6.635354408416866" x2="1451.046875" y2="6.635354408416866" fill="rgb(0, 0, 0)" stroke="rgb(66, 66, 66)" stroke-width="1px" opacity="0.25"></line></g></g></g><g><g><line x1="0" y1="796.9053867259236" x2="1451.046875" y2="796.9053867259236" fill="rgb(0, 0, 0)" stroke="rgb(153, 153, 153)" stroke-width="1.5px"></line></g></g><g><g><line x1="5.870846806129126" y1="0" x2="5.870846806129126" y2="377" fill="rgb(0, 0, 0)" stroke="rgb(153, 153, 153)" stroke-width="1.5px"></line></g></g><g><g><g><g><g><path style="fill: none;" stroke="rgb(204, 51, 17)" stroke-width="2px" d="M20.162102947117237,188.04065412221857L34.45335908810535,211.52503778870104L48.74461522909346,233.08031264451338L63.035871370081566,251.63179582992979L77.32712751106968,264.6001497831436L91.6183836520578,275.2029793919622L105.9096397930459,283.1412998752162L120.20089593403402,290.832919685981L134.49215207502212,296.79593691837965L148.78340821601026,302.27802523194055L163.07466435699834,304.57357727180784L177.36592049798648,309.1268516681895L191.6571766389746,312.2739896003297L205.9484327799627,314.5154899558118L220.2396889209508,315.9811262737575L234.5309450619389,318.03486251852786L248.822201202927,320.5452902045609L263.1134573439152,324.4253907343507L277.40471348490325,324.6031218502672L291.69596962589134,328.20299732017395L305.9872257668795,329.66666354149925L320.27848190786756,330.6952358682277L334.5697380488557,332.6917315667222L348.8609941898438,332.0381222817211L363.152250330832,334.47866938711746L377.44350647182,335.44081044213857L391.73476261280814,335.98371134037643L406.0260187537962,336.9947497401456L420.31727489478436,337.738376211476L434.6085310357725,338.93836726500757L448.8997871767606,339.2651227144622L463.1910433177487,339.91117189028375L477.48229945873675,341.3635944071622L491.7735555997249,342.3856714611706L506.064811740713,344.40053359824736L520.3560678817012,344.23791007874127L534.6473240226893,345.19460809435446L548.9385801636773,343.70752729990176L563.2298363046655,346.238637891231L577.5210924456536,347.48445878481385L591.8123485866416,346.4194015573794L606.1036047276298,346.46780328039983L620.3948608686179,345.96590431530376L634.686117009606,348.23193559957707L648.9773731505942,348.75605134604564L663.2686292915822,348.11161830267343L677.5598854325704,348.6868979211114L691.8511415735584,349.3439267017584L706.1423977145465,350.5752119545044L720.4336538555347,350.8787381238052L734.7249099965228,351.1737634083772L749.0161661375108,350.2407566749034L763.3074222784991,348.8212314584316L777.5986784194871,349.8294487580386L791.8899345604752,349.78707424702446L806.1811907014634,350.6152968103223L820.4724468424515,350.3802626386033L834.7637029834395,350.6449852864215L849.0549591244278,350.47432494313284L863.3462152654158,352.58503093817745L877.6374714064038,352.96753070084543L891.928727547392,352.76455912014467L906.2199836883801,352.11744523968406L920.511239829368,352.63516514074115L934.8024959703563,353.99785346480115L949.0937521113443,355.0319888295867L963.3850082523325,354.19420567440085L977.6762643933206,353.8991332278288L991.9675205343087,354.8961665860266L1006.2587766752968,355.0616982374122L1020.550032816285,354.12185240143236L1034.841288957273,355.3345005671404L1049.132545098261,355.2326603492896L1063.423801239249,355.22823568263664L1077.7150573802373,354.607312983569L1092.0063135212254,355.1662208135029L1106.2975696622136,355.4503711568308L1120.5888258032016,356.20716377957694L1134.88008194419,356.8484768173224L1149.171338085178,355.203851626049L1163.4625942261662,355.7044553503404L1177.7538503671542,356.3180731138516L1192.0451065081422,357.4381066243156L1206.3363626491305,357.26086444929604L1220.6276187901185,357.3257661198892L1234.9188749311065,358.3668707024272L1249.2101310720946,358.80553556060363L1263.5013872130828,358.75093901137114L1277.7926433540708,359.30711759067776L1292.0838994950589,358.75846586450166L1306.375155636047,359.0814605372818L1320.6664117770354,358.4500427710291L1334.9576679180234,359.08328776813005L1349.2489240590116,359.19079217029395L1363.5401801999997,358.83088059617484L1377.8314363409877,359.5680566349086L1392.1226924819757,360.5801473679859L1406.413948622964,360.0250234495325L1420.705204763952,360.239127500244L1434.99646090494,359.4293108311637" fill="none"></path></g><g><path style="fill: none;" stroke="rgb(0, 119, 187)" stroke-width="2px" d="M20.162102947117237,14.542381980901183L34.45335908810535,128.2952133900021L48.74461522909346,178.85707859538894L63.035871370081566,209.68330084597386L77.32712751106968,230.84881634851553L91.6183836520578,246.7534478494397L105.9096397930459,259.29448896820725L120.20089593403402,269.2153750410704L134.49215207502212,277.4204796075136L148.78340821601026,283.99918828550295L163.07466435699834,289.66490014865917L177.36592049798648,294.7446152394919L191.6571766389746,298.89734383964054L205.9484327799627,302.69428193949426L220.2396889209508,305.993714708226L234.5309450619389,308.9616379345207L248.822201202927,311.8752186837716L263.1134573439152,314.4699671037416L277.40471348490325,316.76721337980786L291.69596962589134,318.8542696711798L305.9872257668795,320.8758587995493L320.27848190786756,322.64803999627105L334.5697380488557,324.31555280041295L348.8609941898438,325.8753034461889L363.152250330832,327.3036172631673L377.44350647182,328.6837500319373L391.73476261280814,330.11466402179275L406.0260187537962,331.4098512482243L420.31727489478436,332.70668513188343L434.6085310357725,333.90526382115826L448.8997871767606,334.7816506895105L463.1910433177487,335.8772214073258L477.48229945873675,336.9999304046253L491.7735555997249,337.93329275153036L506.064811740713,338.6004402194393L520.3560678817012,339.5520441743724L534.6473240226893,340.42416074286507L548.9385801636773,341.17582196079866L563.2298363046655,341.94315765663276L577.5210924456536,342.6787442242161L591.8123485866416,343.31773054484546L606.1036047276298,344.02835404876083L620.3948608686179,344.607412524588L634.686117009606,345.23967043897795L648.9773731505942,345.88398386317954L663.2686292915822,346.4430429713653L677.5598854325704,347.10265770007464L691.8511415735584,347.57211913735625L706.1423977145465,348.0298463197374L720.4336538555347,348.5614460605278L734.7249099965228,349.02267786754123L749.0161661375108,349.51333621932L763.3074222784991,349.95260629570566L777.5986784194871,350.518360683667L791.8899345604752,350.9275237890499L806.1811907014634,351.3173389098605L820.4724468424515,351.81553588226257L834.7637029834395,352.3061539917066L849.0549591244278,352.7422235175165L863.3462152654158,353.05157328927163L877.6374714064038,353.34614159717216L891.928727547392,353.71447404529965L906.2199836883801,354.15839517885473L920.511239829368,354.48028071825007L934.8024959703563,354.84366735929115L949.0937521113443,355.1775064282146L963.3850082523325,355.52694596622064L977.6762643933206,355.76113773484246L991.9675205343087,356.10568647089474L1006.2587766752968,356.5030465070309L1020.550032816285,356.77792146226295L1034.841288957273,357.0671600877074L1049.132545098261,357.3582767384437L1063.423801239249,357.79004961218385L1077.7150573802373,358.0559154919011L1092.0063135212254,358.34729457116083L1106.2975696622136,358.6516108872591L1120.5888258032016,358.94069547092204L1134.88008194419,359.1745753927501L1149.171338085178,359.4033313669995L1163.4625942261662,359.74542434871677L1177.7538503671542,360.03188764762274L1192.0451065081422,360.2880875633798L1206.3363626491305,360.5322808290264L1220.6276187901185,360.729526303265L1234.9188749311065,361.0300288036253L1249.2101310720946,361.273052685062L1263.5013872130828,361.3706321392355L1277.7926433540708,361.5276483721783L1292.0838994950589,361.8020764953371L1306.375155636047,362.0901483312929L1320.6664117770354,362.2269818444384L1334.9576679180234,362.3589282715911L1349.2489240590116,362.61213214217827L1363.5401801999997,362.80489838668893L1377.8314363409877,362.9534223059666L1392.1226924819757,363.2521948937719L1406.413948622964,363.48161465890837L1420.705204763952,363.68180296329797L1434.99646090494,363.8710686108" fill="none"></path></g></g></g></g><g opacity="0.2"><g><g><g><path style="fill: none;" stroke="rgb(204, 51, 17)" stroke-width="2px" d="M20.162102947117237,188.04065412221857L34.45335908810535,225.61566798859062L48.74461522909346,253.77337650609326L63.035871370081566,273.44834005597943L77.32712751106968,281.5316327044595L91.6183836520578,289.8705097596174L105.9096397930459,294.49322517939703L120.20089593403402,302.04737520962635L134.49215207502212,305.5902290797005L148.78340821601026,310.418287473078L163.07466435699834,307.99608484355974L177.36592049798648,315.93198454456956L191.6571766389746,316.9844205471504L205.9484327799627,317.8733491564929L220.2396889209508,318.17785795020217L234.5309450619389,321.1140184317666L248.822201202927,324.3098694047478L263.1134573439152,330.2445563719311L277.40471348490325,324.8696914485955L291.69596962589134,333.60248148215686L305.9872257668795,331.8620826025531L320.27848190786756,332.23806051270986L334.5697380488557,335.68643569713885L348.8609941898438,331.0577160968447L363.152250330832,338.13947269884795L377.44350647182,336.8840179215781L391.73476261280814,336.79806129859867L406.0260187537962,338.5113057876173L420.31727489478436,338.8538152334865L434.6085310357725,340.7383531820882L448.8997871767606,339.75525578028834L463.1910433177487,340.8802455254741L477.48229945873675,343.54222800908985L491.7735555997249,343.9187869689739L506.064811740713,347.4228267172701L520.3560678817012,343.99397480367554L534.6473240226893,346.62965510297266L548.9385801636773,341.4769061220273L563.2298363046655,350.0353037641271L577.5210924456536,349.3531901210248L591.8123485866416,344.82181571836344L606.1036047276298,346.5404058648724L620.3948608686179,345.21305586802174L634.686117009606,351.63098252500583L648.9773731505942,349.5422249656122L663.2686292915822,347.1449687377157L677.5598854325704,349.54981734871444L691.8511415735584,350.329469872692L706.1423977145465,352.42213983358215L720.4336538555347,351.3340273777503L734.7249099965228,351.61630133523147L749.0161661375108,348.84124657469965L763.3074222784991,346.69194363373015L777.5986784194871,351.3417747074465L791.8899345604752,349.72351248050336L806.1811907014634,351.8576306552682L820.4724468424515,350.0277113810248L834.7637029834395,351.04206925814884L849.0549591244278,350.2183344281999L863.3462152654158,355.7510899307442L877.6374714064038,353.54128034484734L891.928727547392,352.46010174909355L906.2199836883801,351.146774418993L920.511239829368,353.4117449923268L934.8024959703563,356.0418859508911L949.0937521113443,356.58319187676494L963.3850082523325,352.9375309416222L977.6762643933206,353.45652455797085L991.9675205343087,356.39171662332325L1006.2587766752968,355.30999571449075L1020.550032816285,352.71208364746263L1034.841288957273,357.15347281570257L1049.132545098261,355.0799000225135L1063.423801239249,355.2215986826571L1077.7150573802373,353.6759289349674L1092.0063135212254,356.00458255840397L1106.2975696622136,355.87659667182265L1120.5888258032016,357.342352713696L1134.88008194419,357.81044637394064L1149.171338085178,352.73691383913894L1163.4625942261662,356.4553609367776L1177.7538503671542,357.2384997591184L1192.0451065081422,359.11815689001145L1206.3363626491305,356.9950011867667L1220.6276187901185,357.42311862577895L1234.9188749311065,359.92852757623444L1249.2101310720946,359.46353284786824L1263.5013872130828,358.6690441875225L1277.7926433540708,360.1413854596376L1292.0838994950589,357.9354882752374L1306.375155636047,359.565952546452L1320.6664117770354,357.50291612164983L1334.9576679180234,360.0331552637816L1349.2489240590116,359.3520487735398L1363.5401801999997,358.29101323499617L1377.8314363409877,360.67382069300925L1392.1226924819757,362.0982834676018L1406.413948622964,359.1923375718526L1420.705204763952,360.56028357631135L1434.99646090494,358.21458582754315" fill="none"></path></g><g><path style="fill: none;" stroke="rgb(0, 119, 187)" stroke-width="2px" d="M20.162102947117237,14.542381980901183L34.45335908810535,196.5469122354629L48.74461522909346,227.39646919256012L63.035871370081566,245.93493821266168L77.32712751106968,258.482513388634L91.6183836520578,268.75527888255834L105.9096397930459,277.22837842470295L120.20089593403402,283.6801221758109L134.49215207502212,289.52141508350644L148.78340821601026,293.7678039632929L163.07466435699834,298.11208035379093L177.36592049798648,302.3365442905372L191.6571766389746,305.1128773604689L205.9484327799627,308.3822504922671L220.2396889209508,310.93898550195985L234.5309450619389,313.41142956455803L248.822201202927,316.2443568779205L263.1134573439152,318.36143092735375L277.40471348490325,320.2127328315587L291.69596962589134,321.98466334302606L305.9872257668795,323.9081316233511L320.27848190786756,325.3062534769766L334.5697380488557,326.816789084494L348.8609941898438,328.21491093811954L363.152250330832,329.4460778367918L377.44350647182,330.7539432994565L391.73476261280814,332.26103134525914L406.0260187537962,333.3526300994543L420.31727489478436,334.6519347628047L434.6085310357725,335.70313119263415L448.8997871767606,336.09623070141953L463.1910433177487,337.5205772660667L477.48229945873675,338.68399376654565L491.7735555997249,339.33333620503305L506.064811740713,339.60116139263084L520.3560678817012,340.97945008223405L534.6473240226893,341.73233558211115L548.9385801636773,342.3033137807214L563.2298363046655,343.0941611961099L577.5210924456536,343.7821240731329L591.8123485866416,344.27621002450826L606.1036047276298,345.09428930377896L620.3948608686179,345.4760002379109L634.686117009606,346.1880573102891L648.9773731505942,346.8504539993145L663.2686292915822,347.2816316335568L677.5598854325704,348.09207979307666L691.8511415735584,348.27631129325243L706.1423977145465,348.71643709329373L720.4336538555347,349.358845671703L734.7249099965228,349.71452557805577L749.0161661375108,350.2493237469847L763.3074222784991,350.6115114102823L777.5986784194871,351.3669922656076L791.8899345604752,351.54126844712374L806.1811907014634,351.902061591076L820.4724468424515,352.5628313408652L834.7637029834395,353.04208115587244L849.0549591244278,353.3963278062314L863.3462152654158,353.5155979469044L877.6374714064038,353.787994059023L891.928727547392,354.2669727174908L906.2199836883801,354.8242768791872L920.511239829368,354.9631090273432L934.8024959703563,355.38874732085264L949.0937521113443,355.67826503159984L963.3850082523325,356.05110527322967L977.6762643933206,356.1124253877751L991.9675205343087,356.6225095749732L1006.2587766752968,357.0990865612352L1020.550032816285,357.190233895111L1034.841288957273,357.50101802587426L1049.132545098261,357.7949517145483L1063.423801239249,358.43770892279383L1077.7150573802373,358.454714311477L1092.0063135212254,358.7843631900505L1106.2975696622136,359.1080853614064L1120.5888258032016,359.3743223464164L1134.88008194419,359.52539527549243L1149.171338085178,359.7464653283736L1163.4625942261662,360.2585638212927L1177.7538503671542,360.4615825959817L1192.0451065081422,360.67238743701546L1206.3363626491305,360.8985707274961L1220.6276187901185,361.025394514623L1234.9188749311065,361.4807825541659L1249.2101310720946,361.63758850721706L1263.5013872130828,361.51700132049564L1277.7926433540708,361.7631727215925L1292.0838994950589,362.21371868007526L1306.375155636047,362.5222560852266L1320.6664117770354,362.4322321141567L1334.9576679180234,362.55684791232017L1349.2489240590116,362.991937948059L1363.5401801999997,363.09404775345496L1377.8314363409877,363.1762081848832L1392.1226924819757,363.70035377547987L1406.413948622964,363.825744306613L1420.705204763952,363.98208541988237L1434.99646090494,364.15496708205313" fill="none"></path></g></g></g></g></g></g><g transform="translate(61, 377)" clip-path="url(#clip_1)"><clipPath id="clip_1"><rect width="1451" height="23"></rect></clipPath><g><g><line x1="5.870846806129126" y1="0" x2="5.870846806129126" y2="5" style="visibility: inherit;" fill="rgb(0, 0, 0)" stroke="rgb(204, 204, 204)" stroke-width="1px"></line><line x1="148.78340821601026" y1="0" x2="148.78340821601026" y2="5" style="visibility: inherit;" fill="rgb(0, 0, 0)" stroke="rgb(204, 204, 204)" stroke-width="1px"></line><line x1="291.69596962589134" y1="0" x2="291.69596962589134" y2="5" style="visibility: inherit;" fill="rgb(0, 0, 0)" stroke="rgb(204, 204, 204)" stroke-width="1px"></line><line x1="434.6085310357725" y1="0" x2="434.6085310357725" y2="5" style="visibility: inherit;" fill="rgb(0, 0, 0)" stroke="rgb(204, 204, 204)" stroke-width="1px"></line><line x1="577.5210924456536" y1="0" x2="577.5210924456536" y2="5" style="visibility: inherit;" fill="rgb(0, 0, 0)" stroke="rgb(204, 204, 204)" stroke-width="1px"></line><line x1="720.4336538555347" y1="0" x2="720.4336538555347" y2="5" style="visibility: inherit;" fill="rgb(0, 0, 0)" stroke="rgb(204, 204, 204)" stroke-width="1px"></line><line x1="863.3462152654158" y1="0" x2="863.3462152654158" y2="5" style="visibility: inherit;" fill="rgb(0, 0, 0)" stroke="rgb(204, 204, 204)" stroke-width="1px"></line><line x1="1006.2587766752968" y1="0" x2="1006.2587766752968" y2="5" style="visibility: inherit;" fill="rgb(0, 0, 0)" stroke="rgb(204, 204, 204)" stroke-width="1px"></line><line x1="1149.171338085178" y1="0" x2="1149.171338085178" y2="5" style="visibility: inherit;" fill="rgb(0, 0, 0)" stroke="rgb(204, 204, 204)" stroke-width="1px"></line><line x1="1292.0838994950589" y1="0" x2="1292.0838994950589" y2="5" style="visibility: inherit;" fill="rgb(0, 0, 0)" stroke="rgb(204, 204, 204)" stroke-width="1px"></line><line x1="1434.99646090494" y1="0" x2="1434.99646090494" y2="5" style="visibility: inherit;" fill="rgb(0, 0, 0)" stroke="rgb(204, 204, 204)" stroke-width="1px"></line></g><g transform="translate(0, 8)"><text x="5.870846806129126" y="0" dx="0em" dy="0.95em" style="text-anchor: middle; visibility: inherit; font-family: Roboto, sans-serif; font-size: 12px; font-weight: 200;" fill="rgb(33, 33, 33)" stroke="none" stroke-width="1px">0</text><text x="148.78340821601026" y="0" dx="0em" dy="0.95em" style="text-anchor: middle; visibility: inherit; font-family: Roboto, sans-serif; font-size: 12px; font-weight: 200;" fill="rgb(33, 33, 33)" stroke="none" stroke-width="1px">10</text><text x="291.69596962589134" y="0" dx="0em" dy="0.95em" style="text-anchor: middle; visibility: inherit; font-family: Roboto, sans-serif; font-size: 12px; font-weight: 200;" fill="rgb(33, 33, 33)" stroke="none" stroke-width="1px">20</text><text x="434.6085310357725" y="0" dx="0em" dy="0.95em" style="text-anchor: middle; visibility: inherit; font-family: Roboto, sans-serif; font-size: 12px; font-weight: 200;" fill="rgb(33, 33, 33)" stroke="none" stroke-width="1px">30</text><text x="577.5210924456536" y="0" dx="0em" dy="0.95em" style="text-anchor: middle; visibility: inherit; font-family: Roboto, sans-serif; font-size: 12px; font-weight: 200;" fill="rgb(33, 33, 33)" stroke="none" stroke-width="1px">40</text><text x="720.4336538555347" y="0" dx="0em" dy="0.95em" style="text-anchor: middle; visibility: inherit; font-family: Roboto, sans-serif; font-size: 12px; font-weight: 200;" fill="rgb(33, 33, 33)" stroke="none" stroke-width="1px">50</text><text x="863.3462152654158" y="0" dx="0em" dy="0.95em" style="text-anchor: middle; visibility: inherit; font-family: Roboto, sans-serif; font-size: 12px; font-weight: 200;" fill="rgb(33, 33, 33)" stroke="none" stroke-width="1px">60</text><text x="1006.2587766752968" y="0" dx="0em" dy="0.95em" style="text-anchor: middle; visibility: inherit; font-family: Roboto, sans-serif; font-size: 12px; font-weight: 200;" fill="rgb(33, 33, 33)" stroke="none" stroke-width="1px">70</text><text x="1149.171338085178" y="0" dx="0em" dy="0.95em" style="text-anchor: middle; visibility: inherit; font-family: Roboto, sans-serif; font-size: 12px; font-weight: 200;" fill="rgb(33, 33, 33)" stroke="none" stroke-width="1px">80</text><text x="1292.0838994950589" y="0" dx="0em" dy="0.95em" style="text-anchor: middle; visibility: inherit; font-family: Roboto, sans-serif; font-size: 12px; font-weight: 200;" fill="rgb(33, 33, 33)" stroke="none" stroke-width="1px">90</text><text x="1434.99646090494" y="0" dx="0em" dy="0.95em" style="text-anchor: middle; visibility: inherit; font-family: Roboto, sans-serif; font-size: 12px; font-weight: 200;" fill="rgb(33, 33, 33)" stroke="none" stroke-width="1px">100</text></g><line x1="0" y1="0" x2="1451.046875" y2="0" fill="rgb(0, 0, 0)" stroke="rgb(204, 204, 204)" stroke-width="1px"></line></g></g></g></g></svg>